<svg width="27" height="26" viewBox="0 0 27 26" fill="none" xmlns="http://www.w3.org/2000/svg">
<path d="M26.0574 13.0178C26.0574 12.1308 25.9743 11.278 25.8199 10.4592H13.5156V15.3034H20.5466C20.2378 16.8613 19.3115 18.1803 17.9219 19.0673V22.2172H22.1619C24.6322 20.0339 26.0574 16.8272 26.0574 13.0178Z" fill="#4285F4"/>
<path d="M13.5155 25.2418C17.0428 25.2418 20.0001 24.1274 22.1617 22.217L17.9217 19.0672C16.7578 19.8177 15.2732 20.2725 13.5155 20.2725C10.1187 20.2725 7.23268 18.0779 6.19941 15.1213H1.85254V18.3508C4.00222 22.4331 8.40847 25.2418 13.5155 25.2418Z" fill="#34A853"/>
<path d="M6.19949 15.1101C5.93821 14.3596 5.78381 13.5636 5.78381 12.7335C5.78381 11.9034 5.93821 11.1074 6.19949 10.3569V7.12744H1.85262C0.96187 8.81039 0.451172 10.7094 0.451172 12.7335C0.451172 14.7576 0.96187 16.6566 1.85262 18.3395L5.23748 15.8151L6.19949 15.1101Z" fill="#FBBC05"/>
<path d="M13.5155 5.20573C15.4395 5.20573 17.1497 5.84252 18.5155 7.07062L22.2567 3.48866C19.9883 1.46457 17.0428 0.225098 13.5155 0.225098C8.40847 0.225098 4.00222 3.03381 1.85254 7.12748L6.19941 10.3569C7.23268 7.40039 10.1187 5.20573 13.5155 5.20573Z" fill="#EA4335"/>
</svg>
